<?xml version="1.0" standalone="no"?>
<!DOCTYPE svg PUBLIC "-//W3C//DTD SVG 20010904//EN"
 "http://www.w3.org/TR/2001/REC-SVG-20010904/DTD/svg10.dtd">
<svg version="1.0" xmlns="http://www.w3.org/2000/svg"
 width="551.000000pt" height="452.000000pt" viewBox="0 0 551.000000 452.000000"
 preserveAspectRatio="xMidYMid meet">

<g transform="translate(0.000000,452.000000) scale(0.100000,-0.100000)"
fill="#000000" stroke="none">
<path d="M1680 4185 c0 -2 41 -78 91 -167 204 -362 309 -553 309 -562 0 -5
-27 -46 -60 -93 -33 -46 -60 -86 -60 -88 0 -3 11 -5 25 -5 17 0 28 -7 34 -21
7 -19 12 -15 55 45 26 36 51 66 55 66 12 0 21 -26 21 -62 0 -37 32 -83 72
-104 23 -12 46 -14 97 -9 69 7 195 -11 486 -70 143 -29 402 -75 464 -82 34 -5
43 -3 39 8 -2 7 -34 18 -74 25 -38 7 -96 17 -129 23 -133 24 -644 113 -705
123 -55 9 -69 16 -93 45 -29 34 -94 73 -121 73 -15 0 -36 32 -56 85 -9 23 -6
27 39 53 l49 28 -20 46 -20 47 -50 -25 c-42 -21 -53 -23 -63 -12 -7 7 -69 114
-138 238 -68 124 -137 248 -152 275 -47 84 -75 125 -85 125 -6 0 -10 -2 -10
-5z"/>
<path d="M4400 3485 c0 -7 32 -66 165 -300 56 -99 117 -207 135 -240 18 -33
39 -70 47 -81 19 -29 38 -16 -354 -236 -34 -19 -55 -38 -59 -53 -9 -36 -32
-50 -83 -51 -38 0 -68 -13 -166 -69 -252 -143 -274 -155 -278 -155 -5 0 -58
91 -232 398 -125 219 -155 264 -155 231 0 -6 68 -131 151 -278 84 -146 165
-290 181 -318 16 -29 33 -53 38 -53 11 0 86 41 200 109 47 28 113 66 147 83
58 31 64 32 98 19 34 -12 39 -11 83 16 38 23 48 35 52 63 6 39 1 35 253 175
86 48 157 92 157 98 0 6 -24 54 -54 106 -30 53 -110 195 -178 315 -105 187
-148 251 -148 221z"/>
<path d="M1278 3191 c-16 -13 -28 -35 -32 -58 -4 -21 -9 -51 -13 -67 -5 -28
-4 -29 11 -13 11 11 33 17 62 17 41 0 45 -2 42 -22 -3 -20 -8 -23 -39 -20 -50
4 -86 -29 -95 -86 l-7 -43 30 17 c39 23 83 13 83 -19 0 -12 -9 -74 -19 -137
-11 -63 -23 -141 -26 -173 -4 -32 -13 -60 -19 -62 -6 -2 -27 -6 -47 -9 -53 -9
-67 -25 -75 -84 l-7 -52 33 14 c27 11 42 11 89 0 65 -15 285 -52 386 -64 39
-5 94 -14 124 -20 30 -5 56 -8 59 -5 3 3 11 42 18 87 7 46 27 171 44 278 54
327 68 425 61 431 -3 4 -100 21 -216 39 -236 36 -363 57 -397 65 -16 4 -33 -1
-50 -14z m347 -166 c172 -25 180 -28 183 -53 3 -16 -2 -22 -15 -22 -31 1 -312
48 -323 55 -26 16 -3 47 30 40 8 -2 65 -11 125 -20z m0 -156 c73 -12 138 -25
146 -29 8 -6 12 -23 11 -46 -5 -71 -51 -327 -61 -337 -7 -7 -55 -3 -143 12
-73 12 -143 21 -155 21 -40 0 -41 26 -12 204 15 92 30 174 33 182 7 18 25 18
181 -7z"/>
<path d="M3782 3168 c-22 -11 -22 -12 47 -142 134 -255 193 -333 235 -309 11
6 2 28 -41 103 -31 52 -68 117 -83 145 -79 146 -117 209 -126 211 -5 1 -19 -2
-32 -8z"/>
<path d="M4688 2528 c-18 -15 -108 -127 -503 -632 -44 -56 -57 -84 -50 -106 4
-12 50 -55 103 -98 53 -42 101 -82 105 -89 24 -39 321 -263 332 -251 7 7 -92
92 -317 271 -108 87 -200 167 -203 178 -8 24 19 59 45 59 10 0 69 -42 132 -92
63 -51 145 -118 182 -148 37 -30 93 -77 124 -103 32 -27 69 -55 83 -62 24 -13
28 -12 51 13 39 42 478 631 478 642 0 7 -296 256 -468 392 -50 40 -69 45 -94
26z"/>
<path d="M1226 2298 c-9 -35 -7 -45 9 -52 8 -3 14 0 12 7 -1 7 9 12 22 12 31
0 39 24 15 42 -27 20 -51 16 -58 -9z"/>
<path d="M1799 2268 c0 -7 -4 -34 -8 -60 -8 -47 4 -70 13 -25 14 68 16 97 6
97 -5 0 -10 -6 -11 -12z"/>
<path d="M341 1974 c-40 -47 -74 -91 -77 -99 -10 -25 15 -53 129 -148 61 -52
177 -149 257 -217 80 -67 172 -145 205 -173 l60 -50 5 26 c3 14 14 36 25 49
85 98 115 137 115 145 0 5 -37 41 -82 79 -46 38 -96 81 -113 96 -65 57 -402
341 -426 358 l-26 19 -72 -85z"/>
<path d="M1060 1368 c-11 -12 -20 -24 -20 -27 1 -13 37 -48 77 -73 46 -30 53
-25 53 35 -1 35 -14 55 -48 75 -30 17 -38 15 -62 -10z"/>
<path d="M2202 702 c-11 -7 -12 -38 -7 -142 5 -104 3 -135 -7 -141 -10 -7 -10
-9 0 -9 6 0 12 -7 12 -15 0 -12 5 -11 32 3 18 9 38 22 45 29 27 25 54 25 79 2
13 -12 21 -26 17 -32 -3 -6 -2 -7 4 -4 5 3 24 -3 41 -13 l32 -20 0 138 c0 75
3 146 6 158 5 18 -1 22 -48 33 -71 17 -190 24 -206 13z"/>
<path d="M2879 543 c-13 -16 -12 -17 4 -4 16 13 21 21 13 21 -2 0 -10 -8 -17
-17z"/>
<path d="M2693 460 c-49 -11 -95 -42 -129 -87 -18 -23 -34 -47 -36 -54 -3 -10
-18 -9 -64 4 -111 31 -238 40 -464 33 -118 -3 -264 -10 -325 -16 -284 -24
-417 -33 -635 -39 -226 -6 -235 -7 -235 -26 0 -20 8 -20 821 -23 l822 -2 16
-25 16 -25 280 0 280 0 10 25 10 25 834 0 c658 0 835 3 838 13 14 35 2 37
-278 37 -230 0 -315 4 -522 27 -198 21 -292 27 -477 26 -230 -1 -265 -5 -431
-49 -17 -5 -26 2 -45 33 -33 53 -59 81 -94 102 -34 21 -144 33 -192 21z"/>
</g>
</svg>
